<svg width="429" height="290" viewBox="0 0 429 290" fill="none" xmlns="http://www.w3.org/2000/svg">
<path d="M148.202 99.8C155.909 87.7007 162.483 77.0398 169.384 66.5888C186.889 40.0835 223.491 29.0253 252.832 42.7823C242.213 58.5168 231.22 73.6871 221.391 89.573C197.25 128.591 173.706 167.97 149.774 207.111C146.089 213.131 141.83 218.827 137.384 224.311C129.257 234.34 112.543 237.167 101.466 230.182C81.5691 217.632 61.572 205.201 42.1944 191.878C12.0097 171.133 4.08013 130.458 23.5121 99.521C42.7107 68.9294 83.0803 58.8919 114.875 77.3651C126.103 83.8821 136.483 91.8599 148.202 99.8Z" fill="#FFCB98"/>
<path d="M140.471 253.911C154.711 245.109 163.5 231.863 171.764 218.52C191.212 187.074 209.734 155.044 229.146 123.564C246.637 95.1812 264.481 67.0027 282.74 39.1268C306.486 2.87519 357.208 9.46651 379.565 34.3241C378.433 34.7942 377.471 35.3961 376.434 35.593C351.587 40.1569 333.969 54.9685 321.158 75.7818C304.405 102.98 288.657 130.802 271.902 157.986C256.442 183.065 240.547 207.888 224.207 232.4C206.48 258.982 167.27 268.936 140.471 253.911Z" fill="#FFCB98"/>
<path d="M246.218 231.37C265.003 218.383 275.473 199.509 286.603 181.348C305.784 150.03 324.123 118.194 343.337 86.897C353.559 70.2382 368.509 60.314 388.59 58.791C393.885 58.3857 396.424 59.4907 397.633 64.9962C401.811 83.9893 399.361 101.838 388.945 118.245C370.094 147.919 351.178 177.551 331.906 206.966C314.487 233.55 282.249 244.363 252.692 234.134C250.587 233.412 248.616 232.408 246.218 231.37Z" fill="#FFCB98"/>
</svg>