<?xml version="1.0" encoding="UTF-8"?>
<svg width="145px" height="149px" viewBox="0 0 145 149" version="1.1" xmlns="http://www.w3.org/2000/svg" xmlns:xlink="http://www.w3.org/1999/xlink">
    <!-- Generator: Sketch 54.1 (76490) - https://sketchapp.com -->
    <title>Combined Shape</title>
    <desc>Created with Sketch.</desc>
    <g id="Desktop" stroke="none" stroke-width="1" fill="none" fill-rule="evenodd">
        <g id="Websocks-Homepage" transform="translate(-80.000000, -87.000000)" fill="#69BDFF">
            <path d="M87.645707,136.645707 L227.645707,136.645707 L227.645707,141.645707 L87.645707,141.645707 L87.645707,136.645707 Z M101.645707,146.645707 L241.645707,146.645707 L241.645707,151.645707 L101.645707,151.645707 L101.645707,146.645707 Z M58.645707,156.645707 L198.645707,156.645707 L198.645707,161.645707 L58.645707,161.645707 L58.645707,156.645707 Z M87.645707,166.645707 L227.645707,166.645707 L227.645707,171.645707 L87.645707,171.645707 L87.645707,166.645707 Z M66.645707,176.645707 L206.645707,176.645707 L206.645707,181.645707 L66.645707,181.645707 L66.645707,176.645707 Z M87.645707,186.645707 L227.645707,186.645707 L227.645707,191.645707 L87.645707,191.645707 L87.645707,186.645707 Z" id="Combined-Shape" transform="translate(150.145707, 164.145707) rotate(-45.000000) translate(-150.145707, -164.145707) "></path>
        </g>
    </g>
</svg>